<svg xmlns="http://www.w3.org/2000/svg" width="24" height="30" viewBox="0 0 24 30">
  <g id="quote6" transform="translate(-108 -1862)">
    <path id="proc" d="M-220-200h16a3,3,0,0,1,3,3v22a3,3,0,0,1-3,3h-16a3,3,0,0,1-3-3v-22A3,3,0,0,1-220-200Z" transform="translate(332 2063)" fill="none" stroke="#757575" stroke-width="2"/>
    <path id="Path_406" data-name="Path 406" d="M-4.624,0,2.21-11.135H4.216L-2.618,0ZM-6.307-8.381A2.78,2.78,0,0,1-6.077-9.5a2.95,2.95,0,0,1,.621-.918,2.95,2.95,0,0,1,.918-.621A2.821,2.821,0,0,1-3.4-11.271a2.882,2.882,0,0,1,1.148.229,3.027,3.027,0,0,1,.935.621A2.879,2.879,0,0,1-.688-9.5,2.78,2.78,0,0,1-.459-8.381,2.821,2.821,0,0,1-.688-7.242a2.98,2.98,0,0,1-.629.927,2.953,2.953,0,0,1-.935.629A2.882,2.882,0,0,1-3.4-5.457a2.821,2.821,0,0,1-1.139-.229,2.879,2.879,0,0,1-.918-.629,3.056,3.056,0,0,1-.621-.927A2.821,2.821,0,0,1-6.307-8.381Zm1.751,0a1.455,1.455,0,0,0,.332.96,1.03,1.03,0,0,0,.825.4,1.078,1.078,0,0,0,.841-.4,1.412,1.412,0,0,0,.348-.96A1.45,1.45,0,0,0-2.3-8.9a1.327,1.327,0,0,0-.255-.425,1.286,1.286,0,0,0-.383-.289A1.014,1.014,0,0,0-3.4-9.724a1.03,1.03,0,0,0-.825.4A1.431,1.431,0,0,0-4.556-8.381ZM.187-2.771A2.872,2.872,0,0,1,.408-3.893a2.863,2.863,0,0,1,.62-.926,2.98,2.98,0,0,1,.927-.629,2.821,2.821,0,0,1,1.139-.23,2.821,2.821,0,0,1,1.139.23,2.879,2.879,0,0,1,.918.629,3.056,3.056,0,0,1,.62.926A2.78,2.78,0,0,1,6-2.771a2.84,2.84,0,0,1-.229,1.131,2.923,2.923,0,0,1-.62.927,2.95,2.95,0,0,1-.918.62,2.821,2.821,0,0,1-1.139.23,2.821,2.821,0,0,1-1.139-.23,3.056,3.056,0,0,1-.927-.62,2.747,2.747,0,0,1-.62-.927A2.934,2.934,0,0,1,.187-2.771Zm1.734,0a1.433,1.433,0,0,0,.34.961,1.054,1.054,0,0,0,.833.4,1.054,1.054,0,0,0,.833-.4,1.433,1.433,0,0,0,.34-.961,1.45,1.45,0,0,0-.094-.518,1.435,1.435,0,0,0-.255-.434,1.258,1.258,0,0,0-.374-.3.963.963,0,0,0-.451-.111.963.963,0,0,0-.45.111,1.258,1.258,0,0,0-.374.3,1.435,1.435,0,0,0-.255.434A1.45,1.45,0,0,0,1.921-2.771Z" transform="translate(120 1878)" fill="#757575"/>
    <g id="Path_405" data-name="Path 405" transform="translate(113 1881)" fill="#fff">
      <path d="M0,0H14V1H0Z" stroke="none"/>
      <path d="M 0 0 L 14 0 L 14 1 L 0 1 L 0 0 Z" stroke="none" fill="#707070"/>
    </g>
    <g id="Path_404" data-name="Path 404" transform="translate(113 1884)" fill="#fff">
      <path d="M0,0H14V1H0Z" stroke="none"/>
      <path d="M 0 0 L 14 0 L 14 1 L 0 1 L 0 0 Z" stroke="none" fill="#707070"/>
    </g>
    <g id="Path_403" data-name="Path 403" transform="translate(113 1887)" fill="#fff">
      <path d="M0,0H14V1H0Z" stroke="none"/>
      <path d="M 0 0 L 14 0 L 14 1 L 0 1 L 0 0 Z" stroke="none" fill="#707070"/>
    </g>
  </g>
</svg>
